<svg preserveAspectRatio="none" overflow="visible" style="display: block;" width="106.73" height="38.2624" viewBox="0 0 106.73 38.2624" fill="none" xmlns="http://www.w3.org/2000/svg">
<g id="Group">
<path id="Vector" d="M30.0348 7.56979e-06H3.02342C0.808123 7.56979e-06 4.15499e-06 0.807395 4.15499e-06 2.99536V29.6647C4.15499e-06 30.0081 0.0614914 30.6253 0.173047 30.8894C0.284602 31.1536 0.388252 31.3702 0.594674 31.563C0.808123 31.762 1.17705 31.9689 1.35448 32.0499L15.6731 38.089C15.9366 38.2008 16.2256 38.2624 16.5287 38.2624C16.8326 38.2624 17.1216 38.2008 17.3842 38.089L31.7037 32.049C31.8812 31.968 32.2501 31.7611 32.4635 31.5621C32.6699 31.3693 32.7736 31.1536 32.8852 30.8885C32.9967 30.6244 33.0582 30.0072 33.0582 29.6638V2.99536C33.0582 0.807395 32.2501 7.56979e-06 30.0348 7.56979e-06ZM18.2538 4.79855H20.5148V19.4698H18.2538V4.79855ZM18.3706 22.9775H19.6847V27.4239H18.4471V24.8697L17.299 26.6104H17.2735L16.1316 24.8829V27.4239H14.9133V22.9775H16.2274L17.2981 24.6989L18.3706 22.9775ZM10.9377 4.79855H14.4873C16.3258 4.79855 17.234 5.69927 17.234 7.52359V11.4223C17.234 13.2457 16.3258 14.1465 14.4873 14.1465H13.1987V19.4698H10.9377V4.79855ZM4.77493 4.79855H9.80371V6.83155H7.0359V10.9821H9.69743V13.0151H7.0359V17.4376H9.84587V19.4706H4.77493V4.79855ZM9.05884 26.8313C8.81904 27.0259 8.53707 27.1897 8.21207 27.3209C7.88706 27.4521 7.5199 27.5181 7.10881 27.5181C6.75833 27.5181 6.43421 27.4609 6.13731 27.3473C5.83954 27.2328 5.58305 27.0744 5.36433 26.871C5.14649 26.6676 4.9752 26.4255 4.85135 26.1437C4.7275 25.8628 4.66513 25.5538 4.66513 25.2201V25.2069C4.66513 24.8811 4.72574 24.5774 4.84784 24.2982C4.97081 24.0191 5.1377 23.7744 5.35115 23.5648C5.56548 23.3553 5.82021 23.1915 6.11711 23.0726C6.41401 22.9547 6.7355 22.8948 7.08158 22.8948C7.47949 22.8948 7.82206 22.952 8.11105 23.0656C8.39917 23.1801 8.66356 23.3385 8.90336 23.5419L8.17254 24.4118C8.01004 24.2762 7.84402 24.1723 7.67537 24.101C7.50672 24.0288 7.31084 23.9927 7.08861 23.9927C6.92611 23.9927 6.7759 24.0244 6.63624 24.0878C6.49745 24.1512 6.37711 24.2384 6.27434 24.3484C6.17157 24.4585 6.09076 24.5879 6.03103 24.7358C5.9713 24.8838 5.94143 25.0431 5.94143 25.2122V25.2254C5.94143 25.4032 5.9713 25.5688 6.03103 25.7202C6.09076 25.8725 6.17596 26.0028 6.284 26.1111C6.39292 26.2194 6.52117 26.3039 6.66874 26.3656C6.81631 26.4263 6.97969 26.458 7.15976 26.458C7.45051 26.458 7.68943 26.3973 7.87828 26.274V25.7343H6.99462V24.8292H9.05884V26.8313ZM9.45411 27.4239L11.3664 22.945H12.5654L14.4767 27.4239H13.1433L12.8157 26.6297H11.0844L10.7638 27.4239H9.45411ZM21.9852 32.3448C21.9791 32.3589 21.9703 32.3712 21.9597 32.3818C21.9492 32.3924 21.9369 32.4012 21.9229 32.4065L16.6982 34.6103C16.642 34.634 16.5805 34.6473 16.5164 34.6473C16.4522 34.6473 16.3908 34.634 16.3345 34.6103L11.1503 32.4065C11.1362 32.4003 11.1239 32.3915 11.1134 32.3818C11.1028 32.3712 11.0941 32.3589 11.0879 32.3448C11.0818 32.3307 11.0791 32.3158 11.0791 32.299C11.0791 32.2832 11.0826 32.2673 11.0879 32.2533C11.0941 32.2392 11.1028 32.2268 11.1134 32.2163C11.1239 32.2057 11.1362 32.1969 11.1503 32.1916C11.1643 32.1855 11.1793 32.1828 11.196 32.1828H21.8772C21.893 32.1828 21.9088 32.1863 21.9229 32.1916C21.9369 32.1978 21.9492 32.2057 21.9597 32.2163C21.9703 32.2268 21.9791 32.2392 21.9852 32.2533C21.9914 32.2673 21.994 32.2823 21.994 32.299C21.9949 32.3149 21.9914 32.3307 21.9852 32.3448ZM24.1592 27.4239H20.5166V22.9775H24.1267V24.0262H21.7472V24.6997H23.9019V25.6718H21.7472V26.377H24.1584V27.4239H24.1592ZM21.7094 16.8706V7.39681C21.7094 5.57336 22.6185 4.67176 24.4561 4.67176H25.555C27.3935 4.67176 28.2806 5.55223 28.2806 7.37568V10.3728H26.0627V7.50158C26.0627 6.91431 25.7878 6.64225 25.2177 6.64225H24.8374C24.2453 6.64225 23.9713 6.91431 23.9713 7.50158V16.7659C23.9713 17.3531 24.2462 17.6252 24.8374 17.6252H25.2599C25.8299 17.6252 26.1049 17.3531 26.1049 16.7659V13.4544H28.3237V16.8706C28.3237 18.6941 27.4154 19.5957 25.577 19.5957H24.457C22.6185 19.5957 21.7094 18.695 21.7094 16.8706ZM28.4089 26.0557C28.4089 26.2846 28.365 26.488 28.2771 26.6658C28.1893 26.8437 28.0663 26.9951 27.9082 27.1201C27.7501 27.2452 27.5604 27.3403 27.3372 27.4063C27.115 27.4723 26.8673 27.5049 26.5933 27.5049C26.1909 27.5049 25.8097 27.4442 25.4487 27.3209C25.0877 27.1976 24.768 27.0136 24.4904 26.768L25.1826 25.9482C25.6314 26.3039 26.1163 26.4818 26.638 26.4818C26.8049 26.4818 26.9323 26.4554 27.0193 26.4026C27.1071 26.3497 27.151 26.2749 27.151 26.1772V26.164C27.151 26.1173 27.1396 26.0759 27.1185 26.0407C27.0974 26.0046 27.0579 25.9703 26.9999 25.9359C26.942 25.9016 26.8647 25.869 26.7698 25.8373C26.6732 25.8056 26.5485 25.773 26.3947 25.7387C26.1549 25.6832 25.9327 25.6233 25.728 25.5582C25.5234 25.4922 25.3442 25.4076 25.1922 25.3037C25.0403 25.1998 24.9208 25.0704 24.833 24.9163C24.7451 24.7623 24.7012 24.5694 24.7012 24.3414V24.3282C24.7012 24.1213 24.7407 23.9302 24.8198 23.7559C24.8988 23.5815 25.0148 23.4319 25.1659 23.3051C25.3169 23.1783 25.5005 23.0797 25.714 23.0092C25.9283 22.9397 26.1699 22.9045 26.4387 22.9045C26.8234 22.9045 27.1668 22.9538 27.4681 23.0541C27.7694 23.1536 28.0417 23.3007 28.2859 23.4961L27.664 24.366C27.4593 24.2216 27.2485 24.1133 27.0324 24.0385C26.8164 23.9645 26.6082 23.9267 26.4079 23.9267C26.2586 23.9267 26.1453 23.9549 26.0715 24.0095C25.9968 24.064 25.9591 24.1327 25.9591 24.2128V24.226C25.9591 24.2771 25.9705 24.3211 25.9942 24.359C26.0179 24.3969 26.0583 24.4321 26.1163 24.4638C26.1743 24.4955 26.2533 24.528 26.3534 24.5589C26.4536 24.5906 26.581 24.6231 26.7347 24.6575C26.9912 24.7129 27.2231 24.7772 27.4304 24.8512C27.6377 24.9251 27.8133 25.0158 27.96 25.1206C28.105 25.2263 28.2165 25.3539 28.2929 25.5054C28.3702 25.6559 28.4089 25.8347 28.4089 26.0424V26.0557Z" fill="white"/>
<path id="Vector_2" d="M14.973 11.3166V7.62749C14.973 7.04022 14.6981 6.76815 14.128 6.76815H13.1987V12.176H14.128C14.6989 12.176 14.973 11.9039 14.973 11.3166Z" fill="white"/>
<path id="Vector_3" d="M11.9548 24.4065L11.4489 25.6709H12.4555L11.9548 24.4065Z" fill="white"/>
<path id="Vector_4" d="M56.0096 19.5587C55.7478 19.1017 55.4026 18.7231 54.9766 18.4211C54.5497 18.12 54.006 17.833 53.3472 17.5609L50.7568 16.5105C50.4661 16.3934 50.2227 16.2728 50.0295 16.146C49.8354 16.0201 49.6896 15.8792 49.5929 15.7234C49.4954 15.5684 49.4278 15.3782 49.3892 15.1546C49.3496 14.931 49.3312 14.6545 49.3312 14.3234C49.3312 13.6428 49.4471 13.1471 49.6799 12.8355C49.7967 12.6796 49.9513 12.5484 50.1454 12.4419C50.3396 12.3353 50.582 12.2816 50.8728 12.2816C51.1828 12.2816 51.4305 12.3301 51.615 12.4278C51.7995 12.5255 51.9497 12.6514 52.0665 12.8073C52.2413 13.0406 52.3432 13.3179 52.3722 13.6384C52.4011 13.9589 52.4161 14.305 52.4161 14.6739H56.548C56.548 13.6235 56.4215 12.6902 56.1694 11.874C55.9173 11.0569 55.5098 10.386 54.9467 9.86124C54.0156 8.98605 52.6576 8.54846 50.8728 8.54846C50.0769 8.54846 49.3689 8.66028 48.7479 8.88392C48.1269 9.10756 47.5647 9.43333 47.0605 9.86124C46.4395 10.4062 45.974 11.0675 45.6639 11.8449C45.353 12.6233 45.1984 13.4984 45.1984 14.4705C45.1984 15.2876 45.2563 15.9778 45.3732 16.5413C45.4891 17.1057 45.6639 17.582 45.8967 17.9703C46.1295 18.3595 46.4351 18.6897 46.8137 18.9617C47.1923 19.2347 47.6429 19.4777 48.1673 19.6908L50.7867 20.7702C51.1547 20.9261 51.456 21.0722 51.6888 21.2078C51.9216 21.3443 52.106 21.5142 52.2413 21.7185C52.3766 21.9227 52.4688 22.1851 52.518 22.5056C52.5663 22.8261 52.5909 23.2302 52.5909 23.7163C52.5909 24.5527 52.4547 25.1356 52.1833 25.4666C51.911 25.8171 51.4753 25.9914 50.8736 25.9914C50.5434 25.9914 50.2772 25.943 50.0734 25.8452C49.8696 25.7484 49.7098 25.6313 49.5929 25.4948C49.3988 25.2808 49.2776 25.0185 49.2293 24.7068C49.181 24.396 49.1564 24.0262 49.1564 23.5983H45.0244C45.0244 24.668 45.1263 25.5776 45.3301 26.326C45.5339 27.0744 45.8879 27.7021 46.3921 28.2075C46.8576 28.6742 47.4637 29.044 48.2112 29.316C48.9579 29.5881 49.8459 29.7246 50.8736 29.7246C51.882 29.7246 52.7701 29.5784 53.536 29.287C54.302 28.9955 54.9186 28.6257 55.3842 28.1785C55.927 27.6537 56.2863 27.0162 56.4611 26.2678C56.6359 25.5195 56.7228 24.6196 56.7228 23.5692C56.7228 22.6359 56.6692 21.8479 56.563 21.2069C56.4558 20.5651 56.2713 20.0157 56.0096 19.5587Z" fill="white"/>
<path id="Vector_5" d="M57.2754 12.456H60.7679V29.4912H64.8999V12.456H68.3923V8.72191H57.2754V12.456Z" fill="white"/>
<path id="Vector_6" d="M81.0219 14.0162C80.9244 13.3065 80.7742 12.6699 80.5704 12.1055C80.3666 11.542 80.0803 11.0367 79.7122 10.5885C79.2467 10.0047 78.6546 9.50904 77.937 9.10051C77.2193 8.69197 76.297 8.4877 75.1727 8.4877C74.0475 8.4877 73.126 8.69197 72.4084 9.10051C71.6908 9.50904 71.0987 10.0047 70.6332 10.5885C70.2642 11.0358 69.9788 11.5412 69.775 12.1055C69.5712 12.6699 69.4157 13.3065 69.3094 14.0162C69.2023 14.7267 69.139 15.5041 69.1206 16.3494C69.1013 17.1955 69.0916 18.1138 69.0916 19.1061C69.0916 20.0975 69.1013 21.0167 69.1206 21.8629C69.1399 22.709 69.2032 23.4865 69.3094 24.1961C69.4157 24.9066 69.5712 25.5432 69.775 26.1067C69.9788 26.6711 70.2651 27.1765 70.6332 27.6238C71.0987 28.2075 71.6908 28.7032 72.4084 29.1118C73.126 29.5203 74.0475 29.7246 75.1727 29.7246C76.2979 29.7246 77.2193 29.5203 77.937 29.1118C78.6546 28.7032 79.2467 28.2075 79.7122 27.6238C80.0803 27.1765 80.3675 26.6711 80.5704 26.1067C80.7742 25.5432 80.9244 24.9066 81.0219 24.1961C81.1185 23.4865 81.1818 22.7081 81.2107 21.8629C81.2397 21.0167 81.2547 20.0984 81.2547 19.1061C81.2547 18.1147 81.2397 17.1955 81.2107 16.3494C81.1818 15.5041 81.1185 14.7267 81.0219 14.0162ZM77.1078 20.9736C77.0981 21.5961 77.0735 22.1798 77.0349 22.724C76.9953 23.269 76.9374 23.755 76.8601 24.182C76.7828 24.6099 76.6853 24.9401 76.5693 25.1734C76.4525 25.4068 76.2874 25.6013 76.0748 25.7572C75.8613 25.913 75.5609 25.9905 75.1727 25.9905C74.7844 25.9905 74.484 25.913 74.2706 25.7572C74.0571 25.6013 73.892 25.4068 73.7761 25.1734C73.6592 24.9401 73.5626 24.6099 73.4853 24.182C73.4071 23.7541 73.3492 23.2681 73.3105 22.724C73.271 22.1798 73.2473 21.5961 73.2376 20.9736C73.2271 20.3511 73.2227 19.7295 73.2227 19.107C73.2227 18.4845 73.2271 17.8629 73.2376 17.2404C73.2473 16.6179 73.271 16.0351 73.3105 15.4901C73.3492 14.9459 73.4071 14.4599 73.4853 14.032C73.5626 13.6041 73.6601 13.2739 73.7761 13.0406C73.892 12.8073 74.0571 12.6127 74.2706 12.4568C74.484 12.3019 74.7844 12.2235 75.1727 12.2235C75.5609 12.2235 75.8613 12.3019 76.0748 12.4568C76.2882 12.6127 76.4534 12.8073 76.5693 13.0406C76.6853 13.2739 76.7828 13.605 76.8601 14.032C76.9374 14.4599 76.9953 14.9459 77.0349 15.4901C77.0735 16.0351 77.0972 16.6179 77.1078 17.2404C77.1174 17.8629 77.1227 18.4854 77.1227 19.107C77.1227 19.7286 77.1174 20.3511 77.1078 20.9736Z" fill="white"/>
<path id="Vector_7" d="M93.7329 19.4416C94.043 19.0436 94.281 18.6104 94.4462 18.1438C94.6104 17.6771 94.7229 17.1858 94.7808 16.6708C94.8388 16.1557 94.8678 15.616 94.8678 15.0516C94.8678 14.0602 94.7808 13.17 94.606 12.3829C94.4312 11.5958 94.1255 10.9345 93.689 10.3992C93.2524 9.86475 92.6604 9.45093 91.9138 9.1595C91.1671 8.86807 90.2308 8.72191 89.1055 8.72191H83.1984V29.4912H87.3303V21.4112H88.698L91.2295 29.4912H95.5362L92.5093 20.507C93.0153 20.1953 93.422 19.8404 93.7329 19.4416ZM90.6919 15.9558C90.6629 16.2675 90.5944 16.5493 90.4881 16.8019C90.381 17.0546 90.2167 17.2642 89.9936 17.4288C89.7705 17.5944 89.4648 17.6771 89.0766 17.6771H87.3303V12.456H89.0766C89.4648 12.456 89.7696 12.5343 89.9936 12.6893C90.2167 12.8451 90.3819 13.0494 90.4881 13.3021C90.5944 13.5548 90.6629 13.8374 90.6919 14.1482C90.7209 14.4599 90.7358 14.761 90.7358 15.0525C90.735 15.343 90.7209 15.645 90.6919 15.9558Z" fill="white"/>
<path id="Vector_8" d="M106.73 12.456V8.72191H97.1841V29.4912H106.73V25.7572H101.317V20.7984H105.972V17.0643H101.317V12.456H106.73Z" fill="white"/>
</g>
</svg>
